<svg width="18" height="18" viewBox="0 0 18 18" fill="none">
  <path
    d="M9 2.25C7.02 2.25 5.4 3.87 5.4 5.85V8.4C5.4 8.85 5.22 9.28 4.9 9.6L3.9 10.6C3.6 10.9 3.75 11.4 4.17 11.4H13.83C14.25 11.4 14.4 10.9 14.1 10.6L13.1 9.6C12.78 9.28 12.6 8.85 12.6 8.4V5.85C12.6 3.87 10.98 2.25 9 2.25Z"
    stroke="currentColor"
    stroke-width="1.4"
    stroke-linecap="round"
    stroke-linejoin="round"
  />
  <path
    d="M7.5 13.5C7.5 14.33 8.17 15 9 15C9.83 15 10.5 14.33 10.5 13.5"
    stroke="currentColor"
    stroke-width="1.4"
    stroke-linecap="round"
  />
</svg>
