<svg xmlns="http://www.w3.org/2000/svg" width="1024" height="1024" viewBox="0 0 100 100">
<rect width="100" height="100" rx="24" fill="#17150F"></rect>
<path d="M20 72V35C20 26 26 20 35 20H62C66.5 20 70 23.5 70 28C70 32.5 66.5 36 62 36H40C37.8 36 36 37.8 36 40V72C36 76.5 32.5 80 28 80C23.5 80 20 76.5 20 72Z" fill="#F7B024"></path>
<path d="M48 42H62C72 42 78 49 78 61C78 73 71 82 60 82H48C43 82 40 79 40 74V70C40 67.5 41.5 66 44.5 66H52C55 66 57 64.2 57 61.7C57 59.2 55 57.5 52 57.5H44.5C41.5 57.5 40 56 40 53.5V49.5C40 45 43 42 48 42Z" fill="#FFFFFF"></path>
</svg>